<?xml version="1.0" encoding="UTF-8"?>
<svg id="Layer_1" xmlns="http://www.w3.org/2000/svg" version="1.1" viewBox="0 0 37 41">
  <!-- Generator: Adobe Illustrator 29.5.1, SVG Export Plug-In . SVG Version: 2.1.0 Build 141)  -->
  <defs>
    <style>
      .st0 {
        fill: #f92626;
      }
    </style>
  </defs>
  <path class="st0" d="M26.1,28.92c-.59-.68-.94-1.57-.94-2.55,0-1.09.45-2.08,1.17-2.79v-1.24c0-2.74-2.23-4.97-4.97-4.97h-5.72c-2.74,0-4.97,2.23-4.97,4.97v1.24c.72.71,1.17,1.7,1.17,2.79,0,.97-.36,1.86-.94,2.55h2.51v-7.81c0-.88.71-1.59,1.59-1.59h7c.88,0,1.59.71,1.59,1.59v7.81h2.51Z"/>
  <rect class="st0" x="14.19" y="25" width="8.61" height="1.57"/>
  <rect class="st0" x="14.19" y="22.65" width="8.61" height="1.57"/>
  <rect class="st0" x="14.19" y="27.35" width="8.61" height="1.57"/>
  <path class="st0" d="M27.25,3.86H9.75c-1.63,0-2.97,1.22-3.16,2.8h23.84c-.19-1.57-1.54-2.8-3.16-2.8Z"/>
  <rect class="st0" x="8.91" y="9.73" width="19.19" height="4.5"/>
  <path class="st0" d="M22.81,21.11c0-.45-.36-.81-.81-.81h-7c-.45,0-.81.36-.81.81v.76h8.61v-.76Z"/>
  <circle class="st0" cx="29.07" cy="26.37" r=".78"/>
  <path class="st0" d="M29.07,23.24c-1.73,0-3.13,1.41-3.13,3.13s1.41,3.13,3.13,3.13,3.13-1.41,3.13-3.13-1.41-3.13-3.13-3.13ZM29.07,27.94c-.86,0-1.57-.7-1.57-1.57s.7-1.57,1.57-1.57,1.57.7,1.57,1.57-.7,1.57-1.57,1.57Z"/>
  <path class="st0" d="M34.95,27.16h1.37v-.2c0-.52-.2-1.01-.57-1.38-.37-.37-.86-.57-1.38-.57-.55,0-1.07.23-1.44.63.05.24.07.49.07.74,0,.76-.22,1.46-.59,2.06v6.75c0,1.08.88,1.96,1.96,1.96s1.96-.88,1.96-1.96v-.2h-1.37c-.22,0-.39-.18-.39-.39s.18-.39.39-.39h1.37v-1.57h-1.37c-.22,0-.39-.18-.39-.39s.18-.39.39-.39h1.37v-1.57h-1.37c-.22,0-.39-.18-.39-.39s.18-.39.39-.39h1.37v-1.57h-1.37c-.22,0-.39-.18-.39-.39s.18-.39.39-.39Z"/>
  <path class="st0" d="M27.01,29.7H9.99c-.6.37-1.3.59-2.06.59-.97,0-1.86-.36-2.55-.94v2.51h26.24v-2.51c-.68.59-1.57.94-2.55.94-.76,0-1.46-.22-2.06-.59Z"/>
  <path class="st0" d="M4.08,25.64s-.04-.04-.06-.06c-.38-.38-.88-.58-1.41-.57-1.07.01-1.94.9-1.94,1.99v.17h1.37c.22,0,.39.18.39.39s-.18.39-.39.39H.68v1.57h1.37c.22,0,.39.18.39.39s-.18.39-.39.39H.68v1.57h1.37c.22,0,.39.18.39.39s-.18.39-.39.39H.68v1.57h1.37c.22,0,.39.18.39.39s-.18.39-.39.39H.68v.21c0,.91.61,1.69,1.48,1.89.6.14,1.22,0,1.69-.37.47-.37.74-.93.74-1.54v-6.75c-.37-.6-.59-1.3-.59-2.06,0-.25.02-.5.07-.74Z"/>
  <circle class="st0" cx="7.93" cy="26.37" r=".78"/>
  <path class="st0" d="M7.93,23.24c-1.73,0-3.13,1.41-3.13,3.13s1.41,3.13,3.13,3.13,3.13-1.41,3.13-3.13-1.41-3.13-3.13-3.13ZM7.93,27.94c-.86,0-1.57-.7-1.57-1.57s.7-1.57,1.57-1.57,1.57.7,1.57,1.57-.7,1.57-1.57,1.57Z"/>
  <path class="st0" d="M32.79,15.49c0,.22.18.39.39.39h2.35c.22,0,.39-.18.39-.39v-3.52c0-.22-.18-.39-.39-.39h-2.22c-.76-.32-2.02-.2-2.87.11v-4.25H6.56v4.23c-.85-.3-2.08-.41-2.83-.1H1.47c-.22,0-.39.18-.39.39v3.52c0,.22.18.39.39.39h2.35c.22,0,.39-.18.39-.39v-3.25c.67-.18,1.78,0,2.35.28v10.19c.43-.16.89-.25,1.37-.25.71,0,1.38.19,1.96.53v-.64c0-1.54.6-2.98,1.69-4.07,1.09-1.09,2.53-1.69,4.07-1.69h5.72c1.54,0,2.98.6,4.07,1.69,1.09,1.09,1.69,2.53,1.69,4.07v.64c.58-.33,1.25-.53,1.96-.53.48,0,.94.09,1.37.25v-10.17s.01,0,.02,0c.55-.28,1.65-.47,2.33-.3v3.27ZM28.88,14.63c0,.22-.18.39-.39.39H8.51c-.22,0-.39-.18-.39-.39v-5.29c0-.22.18-.39.39-.39h19.97c.22,0,.39.18.39.39v5.29Z"/>
</svg>